<svg xmlns="http://www.w3.org/2000/svg" viewBox="0 0 64 64" id="map">
  <path fill="#f2cca4" d="M57,14H2V55H55a7,7,0,0,0,7-7h0V37.222Z"></path>
  <polygon fill="#c48b4d" points="39 50 44.5 39 50 50 39 50"></polygon>
  <polygon fill="#e0a155" points="7 28 11 20 15 28 7 28"></polygon>
  <polygon fill="#c48b4d" points="13 24 16 18 22 28 15 28 13 24"></polygon>
  <path fill="#99795f" d="M19.5,49h-4A4.505,4.505,0,0,1,11,44.5,2.5,2.5,0,0,0,8.5,42H2V40H8.5A4.505,4.505,0,0,1,13,44.5,2.5,2.5,0,0,0,15.5,47h4A2.5,2.5,0,0,0,22,44.5v-7A4.505,4.505,0,0,1,26.5,33h5A2.5,2.5,0,0,0,34,30.5v-4A4.505,4.505,0,0,1,38.5,22H52v2H38.5A2.5,2.5,0,0,0,36,26.5v4A4.505,4.505,0,0,1,31.5,35h-5A2.5,2.5,0,0,0,24,37.5v7A4.505,4.505,0,0,1,19.5,49Z"></path>
  <path fill="#4b824b" d="M31 25H27a1 1 0 010-2h3V20a1 1 0 012 0v4A1 1 0 0131 25zM27 22H24a1 1 0 01-.895-.553l-1-2a1 1 0 011.79-.894L24.618 20H27a1 1 0 010 2zM32 44H28a1 1 0 01-1-1V40a1 1 0 012 0v2h3a1 1 0 010 2zM36 47H32a1 1 0 010-2h3V42a1 1 0 012 0v4A1 1 0 0136 47z"></path>
  <rect width="9" height="5" x="39" y="27" fill="#70cbe1" rx="1.972"></rect>
  <path fill="#cea179" d="M55.077,9H52V41h3a7.07,7.07,0,0,1,7,7V15.882A6.9,6.9,0,0,0,55.077,9Z"></path>
  <path fill="#bc926f" d="M55.077,9H52v3h3.077A6.9,6.9,0,0,1,62,18.882v-3A6.9,6.9,0,0,0,55.077,9Z"></path>
  <path fill="#68aa68" d="M27 30a1 1 0 01-1-1V18a1 1 0 012 0V29A1 1 0 0127 30zM32 52a1 1 0 01-1-1V39a1 1 0 012 0V51A1 1 0 0132 52z"></path>
  <rect width="2" height="2" x="50" y="22" fill="#896d58"></rect>
  <rect width="2" height="8" x="50" y="14" fill="#ddb999"></rect>
  <rect width="2" height="17" x="50" y="24" fill="#ddb999"></rect>
</svg>
