<svg xmlns="http://www.w3.org/2000/svg" width="64" height="64" viewBox="0 0 16.933 16.933" id="atomic">
  <g transform="translate(264.405 -1282.338)scale(.26458)">
    <ellipse cx="-4878.631" cy="-967.325" fill="#d1edf1" rx="10.999" ry="26.999" transform="rotate(-90)"></ellipse>
    <ellipse cx="1603.615" cy="-4709.371" fill="#d1edf1" rx="10.96" ry="28.17" transform="matrix(.86624 .49963 .50037 -.86581 0 0)"></ellipse>
    <ellipse cx="3278.654" cy="-3742.767" fill="#d1edf1" rx="10.96" ry="28.17" transform="rotate(150.025)skewX(.049)"></ellipse>
    <path fill="#67bde1" d="M-967.324 4873.632a4.999 4.999 0 0 0-4.998 5 4.999 4.999 0 0 0 4.998 4.998 4.999 4.999 0 0 0 4.998-4.998 4.999 4.999 0 0 0-4.998-5z"></path>
    <g fill="none" stroke="#586597" stroke-linecap="round" stroke-linejoin="round" stroke-width="2.003">
      <ellipse cx="-4878.631" cy="-967.325" rx="10.999" ry="26.999" transform="rotate(-90)"></ellipse>
      <ellipse cx="3278.654" cy="-3742.767" rx="10.96" ry="28.17" transform="rotate(150.025)skewX(.049)"></ellipse>
      <ellipse cx="1603.615" cy="-4709.371" rx="10.96" ry="28.17" transform="matrix(.86624 .49963 .50037 -.86581 0 0)"></ellipse>
    </g>
  </g>
</svg>
